<?xml version="1.0" encoding="UTF-8"?><svg id="Capa_1" xmlns="http://www.w3.org/2000/svg" viewBox="0 0 377.96 316.71"><defs><style>.cls-1{fill:#1d1d1b;}</style></defs><path class="cls-1" d="M173.15,41.69c-15.41,2.92-30.7,7.5-45.57,12.5-22.45,7.74-44.54,17.19-64.88,29.51-71.89,43.65-69.57,91.81-.37,136.92,22.15,14.28,46.5,25.68,70.93,35.5,52.48,20.5,144.84,50.32,199.96,40.59,5.33-1.17,12.45-3.3,14.87-7.4,.58-1.3,.1-1.85-.22-3.15-2.29-7.61-8.4-15.38-14.13-21.57-7.63-8.24-16.34-15.66-25.36-22.48-12.53-9.46-26.01-17.97-39.98-25.37-6.91-3.52-14.05-7.33-21.4-9.74,0,0,62.18-70.3,62.18-70.3,2.66,4.07,4.89,8.12,7.36,12.2,15.59,26.51,32.87,53.91,46.4,81.76,9.23,19.95,22.41,48.76,9.88,69.79-15.38,24.31-53.2,15.56-76.33,10.43-24.12-5.75-47.7-13.45-71.1-21.22-48.14-16.47-97.44-31.95-143.15-54.54-26.8-13.8-56.17-30.7-72.79-56.72C-26.5,119.24,48.6,65.89,92.24,37.67c19.56-12.37,40.21-24.01,60.77-34.64,1.24-.63,3.89-2.02,5.16-2.63,0,0,.86-.41,.86-.41,0,0,14.12,41.69,14.12,41.69h0Z"/><path class="cls-1" d="M186.81,23.43c10.21,1.95,20.08,5.41,29.22,10.38,8.49,4.62,16.47,10.41,22.64,17.93,5.16,6.29,8.61,13.86,9.65,21.93,.98,7.59,.03,15.36-2.52,22.57s-6.76,13.7-12.38,18.79c-5.25,4.75-16.13,11.89-22.05,4.4-5.06-6.4-1.74-15.22,3.68-20.11,2.92-2.64,6.57-4.45,10.42-5.24s8.11-.19,11.89,1.17c7.91,2.84,14.26,9.38,18.33,16.58,5.02,8.89,6.98,19.23,8.27,29.24,.33,2.59,.63,5.19,.92,7.79,.15,1.34,1.04,2.5,2.5,2.5,1.23,0,2.65-1.15,2.5-2.5-1.27-11.27-2.54-22.77-6.91-33.34-3.81-9.23-10.08-17.63-18.88-22.62-4.21-2.39-8.9-3.87-13.74-4.14s-9.28,.97-13.35,3.14c-7.95,4.25-14.11,12.87-12.92,22.18,.64,4.98,3.33,10.02,8.03,12.23,5.2,2.45,11.03,1.06,15.93-1.43,7.77-3.96,14.16-10.75,18.46-18.25,8.57-14.92,9.87-34.24,1.68-49.61-4.93-9.25-12.77-16.64-21.35-22.49-9.26-6.3-19.67-11.02-30.45-14-2.71-.75-5.46-1.38-8.22-1.91-1.32-.25-2.7,.37-3.08,1.75-.34,1.22,.41,2.82,1.75,3.08h0Z"/></svg>